<svg
            data-cy="curoLogo"
            _ngcontent-hpl-c20=""
            fill="none"
            width="58.9389"
            height="49.1616"
            viewBox="0 0 33 27"
            xmlns="http://www.w3.org/2000/svg"
          >
            <g _ngcontent-hpl-c20=""></g>
            <path
              _ngcontent-hpl-c20=""
              clip-rule="evenodd"
              d="M17.3448 27C25.0578 27 31.3104 20.9559 31.3104 13.5C31.3104 6.04415 25.0578 0 17.3448 0C9.63188 0 3.37933 6.04415 3.37933 13.5C3.37933 20.9559 9.63188 27 17.3448 27ZM17.3448 22.6333C22.563 22.6333 26.7931 18.5442 26.7931 13.5C26.7931 8.4558 22.563 4.36667 17.3448 4.36667C12.1267 4.36667 7.89657 8.4558 7.89657 13.5C7.89657 18.5442 12.1267 22.6333 17.3448 22.6333Z"
              fill="url(#paint0_radial_1_9)"
              fill-rule="evenodd"
            ></path>
            <path
              _ngcontent-hpl-c20=""
              clip-rule="evenodd"
              d="M4.23417 14.4945C1.47655 14.8559 0.0324097 17.7315 0.0324097 17.7315C0.0324097 17.7315 2.72108 17.8312 4.23417 18.2767C4.675 18.4065 5.23473 18.7435 5.91839 19.1551C7.58132 20.1562 9.97753 21.5988 13.1795 21.5751C17.6978 21.5417 22.9497 17.9496 22.9497 17.9496C22.9497 17.9496 22.4452 17.3664 21.6697 17.4745C21.4377 17.5068 20.7921 17.6899 19.9588 17.9261C18.0056 18.4798 15.0214 19.3258 13.9158 19.2091C12.3384 19.0425 8.40588 16.6536 8.40588 16.6536C8.40588 16.6536 11.3117 17.4761 12.3439 17.4761C13.0194 17.4761 13.4839 17.1239 13.7244 16.8804C13.825 16.7785 13.7622 16.6245 13.6193 16.5968C13.0177 16.48 11.6283 16.2031 10.6559 15.9533C10.3214 15.8674 9.90967 15.7009 9.43436 15.5087C8.10091 14.9696 6.26707 14.2281 4.23417 14.4945ZM19.9702 16.7567C19.4176 16.9059 15.858 18.68 15.858 18.68L21.3102 17.1112C21.3102 17.1112 20.5228 16.6074 19.9702 16.7567Z"
              fill="#30B90D"
              fill-rule="evenodd"
            ></path>
            <path
              _ngcontent-hpl-c20=""
              clip-rule="evenodd"
              d="M27.7824 19.8945C30.5399 20.2559 31.9842 23.1315 31.9842 23.1315C31.9842 23.1315 29.2955 23.2312 27.7824 23.6767C27.3415 23.8065 26.7818 24.1435 26.0982 24.5551C24.4352 25.5562 22.039 26.9988 18.837 26.9751C14.3187 26.9417 9.06684 23.3496 9.06684 23.3496C9.06684 23.3496 9.57139 22.7664 10.3468 22.8745C10.5788 22.9068 11.2244 23.0899 12.0577 23.3261C14.0109 23.8798 16.9951 24.7258 18.1007 24.6091C19.6781 24.4425 23.6106 22.0536 23.6106 22.0536C23.6106 22.0536 20.7048 22.8761 19.6726 22.8761C18.9972 22.8761 18.5326 22.5239 18.2922 22.2804C18.1915 22.1785 18.2543 22.0245 18.3972 21.9968C18.9988 21.88 20.3882 21.6031 21.3606 21.3533C21.6951 21.2674 22.1068 21.1009 22.5822 20.9087C23.9156 20.3696 25.7495 19.6281 27.7824 19.8945ZM12.0464 22.1567C12.5989 22.3059 16.1585 24.08 16.1585 24.08L10.7064 22.5112C10.7064 22.5112 11.4937 22.0074 12.0464 22.1567Z"
              fill="#EE8F21"
              fill-rule="evenodd"
            ></path>
            <defs _ngcontent-hpl-c20="">
              <radialGradient
                _ngcontent-hpl-c20=""
                cx="0"
                cy="0"
                gradientTransform="translate(5.94375 3.86797) rotate(43.6095) scale(29.103 30.0138)"
                gradientUnits="userSpaceOnUse"
                id="paint0_radial_1_9"
                r="1"
              >
                <stop _ngcontent-hpl-c20="" stop-color="#19EEFB"></stop>
                <stop
                  _ngcontent-hpl-c20=""
                  offset="0.377267"
                  stop-color="#1E6891"
                ></stop>
                <stop
                  _ngcontent-hpl-c20=""
                  offset="1"
                  stop-color="#20225A"
                ></stop>
              </radialGradient>
            </defs>
          </svg>
