<svg width="1125" height="984" viewBox="0 0 1125 984" fill="none" xmlns="http://www.w3.org/2000/svg">
<mask id="mask0" mask-type="alpha" maskUnits="userSpaceOnUse" x="-397" y="-279" width="1522" height="1522">
<circle cx="364" cy="482" r="761" fill="#FFB900"/>
</mask>
<g mask="url(#mask0)">
<rect x="-1" y="-28" width="1400" height="1020" fill="#FFB900"/>
</g>
<g opacity="0.5">
<path d="M436 873H541C598.99 873 646 920.01 646 978C646 1035.99 598.99 1083 541 1083C483.01 1083 436 1035.99 436 978V873Z" fill="white"/>
<path d="M315.562 147L210.562 147C152.572 147 105.562 99.9899 105.562 42C105.562 -15.9899 152.572 -63 210.562 -63C268.552 -63 315.562 -15.9899 315.562 42L315.562 147Z" fill="white"/>
<path d="M568 768H621C650.271 768 674 791.729 674 821C674 850.271 650.271 874 621 874C591.729 874 568 850.271 568 821V768Z" fill="white"/>
<path d="M183.562 252L130.562 252C101.291 252 77.5623 228.271 77.5623 199C77.5622 169.729 101.291 146 130.562 146C159.833 146 183.562 169.729 183.562 199L183.562 252Z" fill="white"/>
<path d="M407 701H483.5C525.75 701 560 735.25 560 777.5C560 819.75 525.75 854 483.5 854C441.25 854 407 819.75 407 777.5V701Z" fill="white"/>
<path d="M344.562 319L268.062 319C225.812 319 191.562 284.75 191.562 242.5C191.562 200.25 225.812 166 268.062 166C310.312 166 344.562 200.25 344.562 242.5L344.562 319Z" fill="white"/>
<path d="M484 682L407.5 682C365.25 682 331 647.75 331 605.5C331 563.25 365.25 529 407.5 529C449.75 529 484 563.25 484 605.5L484 682Z" fill="white"/>
<path d="M267.562 338L344.062 338C386.312 338 420.562 372.25 420.562 414.5C420.562 456.75 386.312 491 344.062 491C301.812 491 267.562 456.75 267.562 414.5L267.562 338Z" fill="white"/>
<path d="M397 831L313.5 831C267.384 831 230 793.616 230 747.5C230 701.384 267.384 664 313.5 664C359.616 664 397 701.384 397 747.5L397 831Z" fill="white"/>
<path d="M354.562 189L438.062 189C484.178 189 521.562 226.384 521.562 272.5C521.562 318.616 484.178 356 438.062 356C391.946 356 354.562 318.616 354.562 272.5L354.562 189Z" fill="white"/>
<path d="M544.781 617.562L462.891 535.672C417.664 490.445 417.664 417.117 462.891 371.891C508.118 326.664 581.445 326.664 626.672 371.891C671.899 417.117 671.899 490.445 626.672 535.671L544.781 617.562Z" fill="white"/>
<path d="M206.781 402.438L288.671 484.328C333.898 529.555 333.898 602.882 288.672 648.109C243.445 693.336 170.117 693.336 124.891 648.109C79.6637 602.882 79.6636 529.555 124.89 484.328L206.781 402.438Z" fill="white"/>
<path d="M416 855L416 931.5C416 973.75 381.75 1008 339.5 1008C297.25 1008 263 973.75 263 931.5C263 889.25 297.25 855 339.5 855L416 855Z" fill="white"/>
<path d="M335.562 166L335.562 89.5C335.562 47.2502 369.812 13 412.062 13C454.312 13 488.562 47.2502 488.562 89.5C488.562 131.75 454.312 166 412.062 166L335.562 166Z" fill="white"/>
<path d="M255 831L255 887.5C255 918.704 229.704 944 198.5 944C167.296 944 142 918.704 142 887.5C142 856.296 167.296 831 198.5 831L255 831Z" fill="white"/>
<path d="M496.562 189L496.562 132.5C496.562 101.296 521.858 76 553.062 76C584.266 76 609.562 101.296 609.562 132.5C609.562 163.704 584.266 189 553.062 189L496.562 189Z" fill="white"/>
<path d="M222 818L165.5 818C134.296 818 109 792.704 109 761.5C109 730.296 134.296 705 165.5 705C196.704 705 222 730.296 222 761.5L222 818Z" fill="white"/>
<path d="M529.562 202L586.063 202C617.267 202 642.563 227.296 642.563 258.5C642.563 289.704 617.267 315 586.063 315C554.858 315 529.562 289.704 529.562 258.5L529.562 202Z" fill="white"/>
<path d="M568 754L568 705.5C568 678.714 589.714 657 616.5 657C643.286 657 665 678.714 665 705.5C665 732.286 643.286 754 616.5 754L568 754Z" fill="white"/>
<path d="M183.562 266L183.562 314.5C183.562 341.286 161.848 363 135.062 363C108.276 363 86.562 341.286 86.562 314.5C86.562 287.714 108.276 266 135.062 266L183.562 266Z" fill="white"/>
<path d="M593 650L593 618.5C593 601.103 607.103 587 624.5 587C641.897 587 656 601.103 656 618.5C656 635.897 641.897 650 624.5 650L593 650Z" fill="white"/>
<path d="M158.562 370L158.562 401.5C158.562 418.897 144.459 433 127.062 433C109.665 433 95.562 418.897 95.562 401.5C95.562 384.103 109.665 370 127.062 370L158.562 370Z" fill="white"/>
<path d="M558 701L525 701C506.775 701 492 686.225 492 668C492 649.775 506.775 635 525 635C543.225 635 558 649.775 558 668L558 701Z" fill="white"/>
<path d="M193.562 319L226.562 319C244.788 319 259.562 333.775 259.562 352C259.562 370.225 244.788 385 226.562 385C208.337 385 193.562 370.225 193.562 352L193.562 319Z" fill="white"/>
</g>
</svg>
